<svg width="1160" height="541" viewBox="0 0 1160 541" fill="none" xmlns="http://www.w3.org/2000/svg">
<path d="M903 506.411C917.636 509.429 935.592 496 935.592 496C935.592 496 930.462 517.879 939.063 530.101C939.063 530.101 922.766 527.989 906.47 540.512C911.45 520.444 903 506.411 903 506.411Z" fill="#FDA71C"/>
<path d="M48.1337 165.636C28.669 169.258 5.28113 151 5.28113 151C5.28113 151 11.6185 179.971 0 195.965C0 195.965 21.5772 193.551 42.8526 210.601C36.817 184.045 48.1337 165.636 48.1337 165.636Z" fill="#FADB0B"/>
<path d="M1159.52 13.8818C1149.41 12.6747 1140.66 0 1140.66 0C1140.66 0 1139.3 15.3907 1131 21.4263C1131 21.4263 1142.01 23.6896 1149.86 35.3081C1151.07 21.1245 1159.52 13.8818 1159.52 13.8818Z" fill="#FDDE0B"/>
<path d="M76.803 179.515C69.5603 180.873 60.6579 174.083 60.6579 174.083C60.6579 174.083 63.0721 184.947 58.6963 190.983C58.6963 190.983 66.8443 190.078 74.8415 196.415C72.5781 186.456 76.803 179.515 76.803 179.515Z" fill="#FF9D00"/>
<path d="M267 323C267 323 265.738 403.556 209.403 395.779C153.068 388.003 189.606 336.16 220.364 359.622C251.123 383.085 235.976 425.489 183.427 433" stroke="white" stroke-width="2" stroke-miterlimit="10" stroke-linecap="round" stroke-linejoin="round"/>
</svg>
